<svg width="892" height="1375" viewBox="0 0 892 1375" fill="none" xmlns="http://www.w3.org/2000/svg">
<path d="M196 1372.14C578.733 1372.14 889 1065.65 889 687.572C889 309.493 578.733 3 196 3C-186.733 3 -497 309.493 -497 687.572C-497 1065.65 -186.733 1372.14 196 1372.14Z" stroke="#B3B3B3" stroke-opacity="0.1" stroke-width="5" stroke-linecap="round" stroke-linejoin="round"/>
<path d="M195.999 1317.66C548.273 1317.66 833.847 1035.56 833.847 687.572C833.847 339.582 548.273 57.481 195.999 57.481C-156.275 57.481 -441.85 339.582 -441.85 687.572C-441.85 1035.56 -156.275 1317.66 195.999 1317.66Z" stroke="#B3B3B3" stroke-opacity="0.1" stroke-width="5" stroke-linecap="round" stroke-linejoin="round"/>
<path d="M196.002 1263.16C517.805 1263.16 778.678 1005.46 778.678 687.571C778.678 369.682 517.805 111.982 196.002 111.982C-125.801 111.982 -386.674 369.682 -386.674 687.571C-386.674 1005.46 -125.801 1263.16 196.002 1263.16Z" stroke="#B3B3B3" stroke-opacity="0.1" stroke-width="5" stroke-linecap="round" stroke-linejoin="round"/>
<path d="M196.001 1208.68C487.345 1208.68 723.525 975.372 723.525 687.572C723.525 399.772 487.345 166.463 196.001 166.463C-95.3428 166.463 -331.523 399.772 -331.523 687.572C-331.523 975.372 -95.3428 1208.68 196.001 1208.68Z" stroke="#B3B3B3" stroke-opacity="0.1" stroke-width="5" stroke-linecap="round" stroke-linejoin="round"/>
<path d="M196.001 1154.18C456.873 1154.18 668.353 945.272 668.353 687.572C668.353 429.872 456.873 220.964 196.001 220.964C-64.8723 220.964 -276.352 429.872 -276.352 687.572C-276.352 945.272 -64.8723 1154.18 196.001 1154.18Z" stroke="#B3B3B3" stroke-opacity="0.1" stroke-width="5" stroke-linecap="round" stroke-linejoin="round"/>
<path d="M195.999 1099.7C426.413 1099.7 613.2 915.183 613.2 687.572C613.2 459.961 426.413 275.445 195.999 275.445C-34.4142 275.445 -221.201 459.961 -221.201 687.572C-221.201 915.183 -34.4142 1099.7 195.999 1099.7Z" stroke="#B3B3B3" stroke-opacity="0.1" stroke-width="5" stroke-linecap="round" stroke-linejoin="round"/>
<path d="M196.003 1045.2C395.945 1045.2 558.031 885.082 558.031 687.571C558.031 490.061 395.945 329.946 196.003 329.946C-3.93988 329.946 -166.025 490.061 -166.025 687.571C-166.025 885.082 -3.93988 1045.2 196.003 1045.2Z" stroke="#B3B3B3" stroke-opacity="0.1" stroke-width="5" stroke-linecap="round" stroke-linejoin="round"/>
<path d="M196 990.716C365.483 990.716 502.876 854.994 502.876 687.572C502.876 520.15 365.483 384.428 196 384.428C26.5163 384.428 -110.877 520.15 -110.877 687.572C-110.877 854.994 26.5163 990.716 196 990.716Z" stroke="#B3B3B3" stroke-opacity="0.1" stroke-width="5" stroke-linecap="round" stroke-linejoin="round"/>
<path d="M195.999 936.215C335.012 936.215 447.703 824.893 447.703 687.572C447.703 550.25 335.012 438.929 195.999 438.929C56.9867 438.929 -55.7051 550.25 -55.7051 687.572C-55.7051 824.893 56.9867 936.215 195.999 936.215Z" stroke="#B3B3B3" stroke-opacity="0.1" stroke-width="5" stroke-linecap="round" stroke-linejoin="round"/>
<path d="M196.002 881.734C304.555 881.734 392.554 794.804 392.554 687.572C392.554 580.339 304.555 493.41 196.002 493.41C87.4488 493.41 -0.550781 580.339 -0.550781 687.572C-0.550781 794.804 87.4488 881.734 196.002 881.734Z" stroke="#B3B3B3" stroke-opacity="0.1" stroke-width="5" stroke-linecap="round" stroke-linejoin="round"/>
<path d="M196.001 827.232C274.083 827.232 337.382 764.704 337.382 687.571C337.382 610.439 274.083 547.911 196.001 547.911C117.919 547.911 54.6211 610.439 54.6211 687.571C54.6211 764.704 117.919 827.232 196.001 827.232Z" stroke="#B3B3B3" stroke-opacity="0.1" stroke-width="5" stroke-linecap="round" stroke-linejoin="round"/>
<path d="M196 772.752C243.623 772.752 282.229 734.615 282.229 687.572C282.229 640.528 243.623 602.392 196 602.392C148.377 602.392 109.771 640.528 109.771 687.572C109.771 734.615 148.377 772.752 196 772.752Z" stroke="#B3B3B3" stroke-opacity="0.1" stroke-width="5" stroke-linecap="round" stroke-linejoin="round"/>
</svg>
