<svg width="33" height="32" viewBox="0 0 33 32" fill="none" xmlns="http://www.w3.org/2000/svg">
<g clip-path="url(#clip0_307_1214)">
<path fill-rule="evenodd" clip-rule="evenodd" d="M16.7969 0C25.6275 0 32.7969 7.16938 32.7969 16C32.7969 24.8306 25.6275 32 16.7969 32C7.96625 32 0.796875 24.8306 0.796875 16C0.796875 7.16938 7.96625 0 16.7969 0ZM16.7969 6C14.0811 6 13.7405 6.0115 12.6739 6.06019C11.6095 6.10875 10.8826 6.27781 10.2464 6.525C9.58887 6.78056 9.03119 7.1225 8.47525 7.67844C7.91931 8.23438 7.57738 8.79206 7.32181 9.44963C7.07463 10.0857 6.90562 10.8126 6.857 11.877C6.80837 12.9436 6.79688 13.2842 6.79688 16C6.79688 18.7158 6.80837 19.0564 6.857 20.123C6.90562 21.1874 7.07463 21.9143 7.32181 22.5504C7.57738 23.2079 7.91931 23.7656 8.47525 24.3216C9.03119 24.8776 9.58887 25.2195 10.2464 25.4751C10.8826 25.7222 11.6095 25.8912 12.6739 25.9398C13.7405 25.9885 14.0811 26 16.7969 26C19.5127 26 19.8532 25.9885 20.9199 25.9398C21.9842 25.8912 22.7112 25.7222 23.3472 25.4751C24.0048 25.2195 24.5625 24.8776 25.1185 24.3216C25.6744 23.7656 26.0164 23.2079 26.2719 22.5504C26.5191 21.9143 26.6881 21.1874 26.7367 20.123C26.7854 19.0564 26.7969 18.7158 26.7969 16C26.7969 13.2842 26.7854 12.9436 26.7367 11.877C26.6881 10.8126 26.5191 10.0857 26.2719 9.44963C26.0164 8.79206 25.6744 8.23438 25.1185 7.67844C24.5625 7.1225 24.0048 6.78056 23.3472 6.525C22.7112 6.27781 21.9842 6.10875 20.9199 6.06019C19.8532 6.0115 19.5127 6 16.7969 6ZM16.7969 7.80181C19.467 7.80181 19.7832 7.812 20.8377 7.86013C21.8127 7.90463 22.3422 8.0675 22.6946 8.20444C23.1614 8.38581 23.4945 8.60256 23.8444 8.9525C24.1944 9.30238 24.4111 9.63556 24.5924 10.1023C24.7294 10.4547 24.8923 10.9841 24.9368 11.9591C24.9849 13.0136 24.9951 13.3299 24.9951 16C24.9951 18.6701 24.9849 18.9864 24.9368 20.0409C24.8923 21.0159 24.7294 21.5453 24.5924 21.8977C24.4111 22.3645 24.1944 22.6976 23.8444 23.0475C23.4945 23.3975 23.1614 23.6142 22.6946 23.7956C22.3422 23.9325 21.8127 24.0954 20.8377 24.1399C19.7834 24.188 19.4672 24.1982 16.7969 24.1982C14.1266 24.1982 13.8104 24.188 12.756 24.1399C11.781 24.0954 11.2516 23.9325 10.8992 23.7956C10.4324 23.6142 10.0992 23.3975 9.74931 23.0475C9.39937 22.6976 9.18269 22.3645 9.00131 21.8977C8.86437 21.5453 8.70144 21.0159 8.65694 20.0409C8.60881 18.9864 8.59869 18.6701 8.59869 16C8.59869 13.3299 8.60881 13.0136 8.65694 11.9591C8.70144 10.9841 8.86437 10.4547 9.00131 10.1023C9.18269 9.63556 9.39937 9.30238 9.74931 8.9525C10.0992 8.60256 10.4324 8.38581 10.8992 8.20444C11.2516 8.0675 11.781 7.90463 12.756 7.86013C13.8105 7.812 14.1267 7.80181 16.7969 7.80181ZM16.7969 10.8649C13.9608 10.8649 11.6617 13.1639 11.6617 16C11.6617 18.8361 13.9608 21.1351 16.7969 21.1351C19.6329 21.1351 21.932 18.8361 21.932 16C21.932 13.1639 19.6329 10.8649 16.7969 10.8649V10.8649ZM16.7969 19.3333C14.9559 19.3333 13.4636 17.8409 13.4636 16C13.4636 14.1591 14.9559 12.6667 16.7969 12.6667C18.6378 12.6667 20.1302 14.1591 20.1302 16C20.1302 17.8409 18.6378 19.3333 16.7969 19.3333V19.3333ZM23.3349 10.662C23.3349 11.3247 22.7976 11.8619 22.1349 11.8619C21.4722 11.8619 20.9349 11.3247 20.9349 10.662C20.9349 9.99925 21.4722 9.462 22.1349 9.462C22.7976 9.462 23.3349 9.99925 23.3349 10.662Z" fill="#333333"/>
</g>
<defs>
<clipPath id="clip0_307_1214">
<rect width="32" height="32" fill="white" transform="translate(0.796875)"/>
</clipPath>
</defs>
</svg>
