<svg width="400" height="400" viewBox="0 0 400 400" fill="none" xmlns="http://www.w3.org/2000/svg">
<path d="M166.231 313.16C163.28 312.276 160.363 313.302 158.956 315.699L160.431 316.141C161.576 314.479 163.651 313.827 165.816 314.476C168.823 315.377 170.146 318.279 169.113 321.727C168.074 325.195 165.374 326.891 162.366 325.99C160.22 325.347 158.896 323.635 158.912 321.49L157.437 321.048C157.178 323.935 158.962 326.411 161.913 327.295C165.783 328.454 169.288 326.373 170.55 322.158C171.813 317.943 170.063 314.308 166.231 313.16Z" fill="black"/>
<path d="M152.171 308.238L149.898 312.982C149.095 314.659 147.455 315.581 145.579 314.682C144.227 314.034 143.617 312.855 144.593 310.817L147.022 305.749L145.777 305.152L143.219 310.491C142.165 312.691 142.51 314.609 144.801 315.706C146.261 316.406 147.663 316.213 148.723 315.435L145.88 321.369L147.124 321.965L153.416 308.835L152.171 308.238Z" fill="black"/>
<path d="M136.428 299.358C135.061 298.452 133.563 298.322 132.389 299.007L133.179 297.491L132.212 296.849L128.751 302.066C127.336 304.199 128.083 306.039 129.95 307.277C131.933 308.593 133.963 308.428 135.046 306.794L133.996 306.098C133.278 307.181 132.024 307.261 130.624 306.333C129.441 305.548 128.823 304.417 129.873 302.834L130.05 302.568L132.86 304.12C134.843 305.22 136.596 305.038 137.58 303.555C138.52 302.138 138.144 300.497 136.428 299.358ZM135.542 300.115C136.642 300.845 137.043 301.831 136.391 302.814C135.794 303.714 134.735 303.972 133.13 303.099L130.625 301.701L130.913 301.268C132.074 299.518 133.842 298.987 135.542 300.115Z" fill="black"/>
<path d="M117.383 300.942C116.953 300.583 116.289 300.629 115.931 301.059C115.572 301.489 115.633 302.165 116.063 302.523C116.493 302.882 117.154 302.808 117.512 302.378C117.871 301.948 117.813 301.3 117.383 300.942ZM125.81 291.902L124.75 291.018L118.549 298.451L119.609 299.335L125.81 291.902Z" fill="black"/>
<path d="M117.512 284.469L113.851 287.961C112.273 289.466 110.458 289.65 109.092 288.217C107.987 287.059 107.862 285.769 109.497 284.209L113.564 280.33L112.611 279.331L108.328 283.418C106.562 285.102 106.178 286.988 108.014 288.913C108.981 289.926 110.371 290.369 111.71 289.976L110.632 291.281L111.461 292.149L118.465 285.467L117.512 284.469Z" fill="black"/>
<path d="M105.649 275.235C107.102 274.172 107.235 272.39 105.949 270.63C104.65 268.854 102.856 268.332 101.452 269.359C100.322 270.185 100.141 271.259 100.793 272.863L101.434 274.451C101.849 275.46 101.737 276.187 101.139 276.624C100.3 277.237 99.3829 276.966 98.5803 275.868C97.813 274.819 97.8854 273.8 98.766 273.106L97.9751 272.025C96.5574 273.136 96.4324 274.862 97.6364 276.509C98.864 278.188 100.574 278.697 101.946 277.694C103.012 276.915 103.238 275.733 102.586 274.129L101.945 272.541C101.498 271.456 101.634 270.861 102.279 270.389C103.119 269.775 104.155 270.108 105.04 271.319C105.843 272.417 105.774 273.508 104.869 274.169L105.649 275.235Z" fill="black"/>
<path d="M98.4612 259.089C97.6678 257.654 96.399 256.847 95.041 256.912L96.4417 255.932L95.8805 254.917L90.4019 257.946C88.1615 259.184 87.9747 261.161 89.0584 263.122C90.2099 265.205 92.0867 265.995 93.802 265.047L93.1924 263.944C92.0547 264.573 90.9058 264.066 90.093 262.596C89.406 261.353 89.3795 260.065 91.0424 259.146L91.3224 258.991L93.0981 261.666C94.3491 263.556 95.9872 264.205 97.5451 263.344C99.0329 262.521 99.4578 260.892 98.4612 259.089ZM97.3262 259.351C97.9648 260.506 97.8654 261.567 96.8327 262.138C95.8875 262.66 94.8294 262.4 93.8088 260.884L92.2326 258.488L92.6877 258.236C94.5256 257.22 96.3392 257.566 97.3262 259.351Z" fill="black"/>
<path d="M91.6715 245.794L91.1939 244.5L84.7975 244.728C83.9569 244.76 83.3574 244.811 82.8211 244.86C83.3237 244.546 83.8312 244.189 84.4237 243.714L89.4357 239.734L88.9719 238.476L78.755 238.749L79.2533 240.1L85.3969 239.88C86.4903 239.84 86.7293 239.794 87.5491 239.705C86.9359 240.123 86.2309 240.639 85.8053 240.988L80.9839 244.791L81.4753 246.124L87.6189 245.904C87.9537 245.887 88.9839 245.848 89.7711 245.728C89.1085 246.186 88.5516 246.583 88.0273 247.011L83.2058 250.815L83.6973 252.147L91.6715 245.794Z" fill="black"/>
<path d="M85.8813 227.732L79.9745 228.786C78.5176 229.046 77.1641 228.292 76.8795 226.697C76.6231 225.26 77.403 224.166 79.0175 223.878L85.003 222.81L84.7641 221.471L78.8771 222.521C77.4004 222.785 76.0307 222.054 75.7462 220.459C75.4862 219.002 76.2894 217.924 77.9235 217.633L83.8893 216.568L83.6539 215.249L77.4125 216.363C75.2073 216.756 74.1109 218.354 74.4798 220.421C74.7538 221.957 75.7486 222.978 77.0663 223.19C75.9067 223.864 75.3194 225.127 75.5864 226.623C75.8253 227.962 76.6254 228.916 77.7138 229.209L76.3834 229.609L76.5942 230.791L86.1237 229.09L85.8813 227.732Z" fill="black"/>
<path d="M83.3488 204.859C83.3216 203.219 82.5798 201.911 81.3501 201.331L83.0469 201.123L83.0276 199.963L76.7685 200.067C74.2088 200.11 73.1162 201.768 73.1533 204.008C73.1927 206.387 74.4791 207.966 76.4388 207.934L76.4179 206.674C75.1181 206.695 74.3416 205.708 74.3138 204.028C74.2903 202.609 74.8713 201.459 76.771 201.427L77.091 201.422L77.404 204.617C77.6214 206.874 78.7638 208.215 80.5435 208.186C82.2433 208.158 83.3829 206.918 83.3488 204.859ZM82.2236 204.557C82.2455 205.877 81.6602 206.767 80.4803 206.787C79.4005 206.804 78.5883 206.078 78.3982 204.261L78.1308 201.405L78.6508 201.396C80.7505 201.361 82.1898 202.518 82.2236 204.557Z" fill="black"/>
<path d="M83.5544 190.567L78.5322 189.949C76.3685 189.683 75.076 188.395 75.3177 186.43C75.513 184.842 76.4315 183.927 78.6746 184.203L84.2526 184.889L84.4211 183.52L78.5453 182.797C76.1236 182.499 74.4211 183.398 74.0964 186.038C73.9255 187.428 74.464 188.784 75.6166 189.57L73.9248 189.564L73.7783 190.755L83.3859 191.936L83.5544 190.567Z" fill="black"/>
<path d="M90.9226 164.535L91.2997 163.459L74.7281 157.651L74.351 158.726L90.9226 164.535Z" fill="black"/>
<path d="M98.8013 142.905L92.9022 139.099C91.0703 137.918 89.7209 137.095 89.2237 136.869L101.262 139.089L102.01 137.93L94.9735 127.845C95.7536 128.444 96.6563 129.073 98.7571 130.429L104.471 134.115L105.241 132.921L93.2076 125.159L92.427 126.369L100.202 137.597L86.7678 135.142L85.998 136.335L98.0316 144.098L98.8013 142.905Z" fill="black"/>
<path d="M112.344 124.719C113.441 123.501 113.789 122.038 113.284 120.776L114.668 121.779L115.444 120.917L110.791 116.729C108.889 115.016 106.959 115.486 105.46 117.151C103.868 118.92 103.734 120.952 105.191 122.263L106.034 121.327C105.068 120.457 105.172 119.205 106.296 117.956C107.246 116.901 108.454 116.455 109.866 117.726L110.104 117.94L108.157 120.493C106.778 122.293 106.701 124.053 108.024 125.244C109.287 126.381 110.966 126.251 112.344 124.719ZM111.726 123.732C110.843 124.713 109.808 124.966 108.931 124.177C108.128 123.454 108.029 122.369 109.127 120.909L110.877 118.636L111.264 118.984C112.825 120.389 113.091 122.216 111.726 123.732Z" fill="black"/>
<path d="M122.306 114.365L120.422 112.161L120.59 109.464L126.076 111.142L127.292 110.102L120.668 108.109L120.987 102.757L119.664 103.888L119.265 110.808L112.832 103.283L111.783 104.18L121.257 115.262L122.306 114.365Z" fill="black"/>
<path d="M126.351 95.5587C126.813 95.2415 126.948 94.5905 126.631 94.129C126.313 93.6675 125.646 93.5438 125.185 93.8609C124.723 94.1781 124.616 94.8342 124.933 95.2958C125.25 95.7573 125.89 95.8759 126.351 95.5587ZM132.78 106.114L133.917 105.332L128.435 97.3544L127.297 98.1361L132.78 106.114Z" fill="black"/>
<path d="M142.094 100.069L139.391 94.7124C138.724 93.3911 139.058 91.8783 140.505 91.1484C141.808 90.4906 143.08 90.9242 143.819 92.3883L146.558 97.8162L147.772 97.2035L145.078 91.8648C144.402 90.5257 144.709 89.004 146.156 88.2741C147.477 87.6073 148.74 88.0677 149.488 89.5497L152.218 94.9598L153.414 94.3561L150.558 88.696C149.549 86.6962 147.704 86.1038 145.829 87.05C144.436 87.7528 143.743 88.9987 143.918 90.3218C142.94 89.4041 141.562 89.2035 140.205 89.8884C138.991 90.5011 138.306 91.5412 138.337 92.6681L137.572 91.5081L136.501 92.0488L140.862 100.691L142.094 100.069Z" fill="black"/>
<path d="M163.28 91.083C164.844 90.5868 165.884 89.5012 166.087 88.1569L166.773 89.7227L167.878 89.3718L165.984 83.4051C165.21 80.9651 163.308 80.3938 161.173 81.0715C158.904 81.7916 157.76 83.4766 158.353 85.3448L159.554 84.9635C159.161 83.7245 159.884 82.6975 161.486 82.1893C162.839 81.7596 164.107 81.9866 164.682 83.7976L164.779 84.1026L161.807 85.3185C159.708 86.1739 158.75 87.6528 159.289 89.3494C159.803 90.9697 161.317 91.7063 163.28 91.083ZM163.247 89.9187C161.988 90.3181 160.968 90.0124 160.611 88.8877C160.284 87.8583 160.748 86.8719 162.434 86.1688L165.093 85.0938L165.251 85.5894C165.886 87.591 165.191 89.3015 163.247 89.9187Z" fill="black"/>
<path d="M187.651 87.3314L188.785 87.2212L187.087 69.7435L185.953 69.8537L187.651 87.3314Z" fill="black"/>
<path d="M214.955 86.2207C218.009 86.6215 220.724 85.1424 221.73 82.5513L220.203 82.3508C219.338 84.1738 217.395 85.1491 215.154 84.855C212.041 84.4463 210.271 81.7934 210.74 78.224C211.211 74.6348 213.605 72.5286 216.719 72.9372C218.94 73.2288 220.521 74.7072 220.847 76.8277L222.374 77.0282C222.169 74.1368 220.012 71.9777 216.958 71.5768C212.952 71.051 209.825 73.6662 209.252 78.0288C208.68 82.3914 210.989 85.7 214.955 86.2207Z" fill="black"/>
<path d="M229.62 88.8313L231.105 83.7854C231.631 82.0011 233.102 80.8288 235.097 81.4163C236.536 81.8399 237.327 82.9067 236.689 85.0747L235.101 90.4659L236.425 90.8556L238.097 85.1766C238.786 82.836 238.139 80.9983 235.702 80.281C234.148 79.8235 232.796 80.2385 231.874 81.1761L233.732 74.864L232.408 74.4743L228.296 88.4415L229.62 88.8313Z" fill="black"/>
<path d="M246.581 95.0804C248.075 95.757 249.575 95.6457 250.625 94.7819L250.087 96.4047L251.144 96.8833L253.727 91.1809C254.783 88.8489 253.751 87.1521 251.71 86.2279C249.542 85.246 247.565 85.7337 246.756 87.5191L247.904 88.0389C248.441 86.8547 249.665 86.575 251.195 87.2681C252.489 87.8539 253.28 88.8708 252.496 90.6016L252.364 90.8931L249.342 89.8097C247.209 89.0413 245.508 89.5005 244.773 91.1219C244.072 92.6705 244.705 94.2305 246.581 95.0804ZM247.335 94.1922C246.132 93.6476 245.578 92.738 246.065 91.6631C246.511 90.6793 247.515 90.2558 249.239 90.8609L251.935 91.8404L251.72 92.3141C250.854 94.2271 249.193 95.0338 247.335 94.1922Z" fill="black"/>
<path d="M265.13 90.4729C265.611 90.7583 266.259 90.6071 266.544 90.1253C266.83 89.6434 266.661 88.9858 266.179 88.7004C265.698 88.4151 265.057 88.5936 264.772 89.0755C264.486 89.5573 264.648 90.1875 265.13 90.4729ZM258.256 100.744L259.443 101.447L264.376 93.1183L263.189 92.415L258.256 100.744Z" fill="black"/>
<path d="M267.634 106.755L270.689 102.722C272.006 100.984 273.768 100.513 275.346 101.709C276.622 102.675 276.952 103.929 275.587 105.73L272.193 110.209L273.292 111.043L276.868 106.324C278.341 104.38 278.419 102.456 276.299 100.849C275.183 100.004 273.74 99.7888 272.481 100.391L273.336 98.9308L272.38 98.2061L266.534 105.921L267.634 106.755Z" fill="black"/>
<path d="M280.82 113.974C279.555 115.255 279.708 117.036 281.259 118.568C282.825 120.113 284.679 120.342 285.902 119.103C286.885 118.107 286.892 117.018 285.992 115.539L285.105 114.074C284.534 113.144 284.529 112.409 285.049 111.882C285.78 111.142 286.728 111.263 287.696 112.219C288.621 113.132 288.712 114.15 287.954 114.975L288.908 115.916C290.129 114.593 289.977 112.869 288.525 111.435C287.045 109.974 285.276 109.745 284.081 110.955C283.154 111.894 283.119 113.097 284.02 114.576L284.906 116.041C285.521 117.041 285.482 117.649 284.92 118.219C284.189 118.959 283.114 118.796 282.046 117.742C281.078 116.787 280.972 115.699 281.759 114.901L280.82 113.974Z" fill="black"/>
<path d="M290.496 128.762C291.509 130.052 292.89 130.646 294.22 130.365L292.994 131.556L293.711 132.468L298.635 128.603C300.648 127.022 300.517 125.041 299.134 123.279C297.664 121.407 295.685 120.926 294.143 122.136L294.921 123.127C295.944 122.325 297.159 122.642 298.196 123.963C299.073 125.08 299.305 126.348 297.811 127.521L297.559 127.718L295.379 125.362C293.841 123.695 292.121 123.317 290.721 124.416C289.383 125.466 289.224 127.142 290.496 128.762ZM291.575 128.322C290.76 127.284 290.688 126.221 291.617 125.493C292.466 124.826 293.552 124.914 294.802 126.247L296.741 128.361L296.332 128.682C294.68 129.978 292.835 129.927 291.575 128.322Z" fill="black"/>
<path d="M299.324 140.801L300.003 142.003L306.28 140.756C307.105 140.589 307.689 140.443 308.21 140.309C307.764 140.699 307.32 141.133 306.811 141.696L302.5 146.427L303.159 147.594L313.201 145.691L312.493 144.437L306.464 145.636C305.391 145.851 305.162 145.934 304.367 146.154C304.906 145.643 305.519 145.021 305.883 144.609L310.035 140.083L309.337 138.846L303.307 140.046C302.979 140.116 301.969 140.319 301.211 140.563C301.792 140.005 302.278 139.524 302.727 139.018L306.879 134.492L306.181 133.256L299.324 140.801Z" fill="black"/>
<path d="M307.925 157.706L313.588 155.722C314.984 155.232 316.441 155.76 316.977 157.289C317.46 158.667 316.865 159.871 315.317 160.414L309.579 162.425L310.029 163.708L315.672 161.73C317.088 161.234 318.557 161.737 319.093 163.265C319.582 164.662 318.962 165.854 317.395 166.403L311.676 168.408L312.119 169.672L318.103 167.575C320.216 166.835 321.043 165.082 320.349 163.101C319.833 161.628 318.688 160.779 317.353 160.781C318.39 159.93 318.768 158.59 318.265 157.155C317.815 155.872 316.873 155.058 315.752 154.942L317.001 154.335L316.604 153.202L307.469 156.404L307.925 157.706Z" fill="black"/>
<path d="M314.084 179.88C314.373 181.494 315.314 182.667 316.621 183.042L314.979 183.519L315.183 184.661L321.345 183.558C323.865 183.107 324.679 181.295 324.284 179.09C323.865 176.748 322.343 175.395 320.413 175.74L320.635 176.98C321.915 176.751 322.839 177.602 323.135 179.255C323.386 180.653 322.996 181.881 321.126 182.216L320.811 182.272L319.991 179.168C319.415 176.975 318.073 175.834 316.321 176.147C314.648 176.447 313.721 177.852 314.084 179.88ZM315.243 179.998C315.01 178.698 315.446 177.726 316.607 177.518C317.67 177.328 318.588 177.916 319.066 179.679L319.787 182.455L319.275 182.547C317.208 182.917 315.602 182.006 315.243 179.998Z" fill="black"/>
<path d="M316.164 194.021L321.22 193.828C323.399 193.745 324.88 194.809 324.956 196.788C325.017 198.387 324.256 199.436 321.998 199.523L316.382 199.737L316.435 201.116L322.35 200.89C324.789 200.797 326.326 199.638 326.224 196.98C326.171 195.581 325.422 194.328 324.159 193.736L325.83 193.472L325.784 192.273L316.111 192.642L316.164 194.021Z" fill="black"/>
<path d="M313.052 220.896L312.852 222.019L330.139 225.103L330.339 223.981L313.052 220.896Z" fill="black"/>
<path d="M308.732 243.508L315.164 246.321C317.161 247.195 318.625 247.792 319.151 247.935L306.913 247.667L306.36 248.932L314.918 257.762C314.052 257.296 313.06 256.818 310.77 255.816L304.54 253.091L303.971 254.392L317.091 260.131L317.668 258.812L308.198 248.972L321.852 249.247L322.421 247.946L309.301 242.207L308.732 243.508Z" fill="black"/>
<path d="M298.272 263.624C297.383 265.002 297.274 266.502 297.974 267.667L296.448 266.898L295.819 267.873L301.082 271.263C303.234 272.65 305.063 271.878 306.277 269.995C307.566 267.994 307.373 265.967 305.726 264.905L305.043 265.964C306.136 266.668 306.233 267.921 305.323 269.333C304.554 270.527 303.432 271.16 301.835 270.131L301.566 269.958L303.081 267.127C304.154 265.129 303.949 263.38 302.452 262.416C301.023 261.495 299.387 261.892 298.272 263.624ZM299.04 264.499C299.755 263.39 300.736 262.975 301.728 263.614C302.636 264.199 302.907 265.254 302.056 266.871L300.692 269.394L300.255 269.113C298.489 267.975 297.935 266.214 299.04 264.499Z" fill="black"/>
<path d="M290.092 275.438L292.305 277.312L292.57 280.001L286.886 279.222L285.852 280.443L292.71 281.351L293.25 286.685L294.375 285.357L293.663 278.463L301.217 284.863L302.109 283.81L290.984 274.385L290.092 275.438Z" fill="black"/>
<path d="M289.106 294.649C288.701 295.035 288.672 295.7 289.058 296.105C289.445 296.509 290.124 296.525 290.529 296.138C290.934 295.751 290.935 295.086 290.548 294.681C290.161 294.277 289.511 294.262 289.106 294.649ZM281.072 285.257L280.075 286.21L286.762 293.209L287.76 292.256L281.072 285.257Z" fill="black"/>
<path d="M272.844 292.713L276.369 297.569C277.238 298.766 277.15 300.313 275.839 301.265C274.658 302.123 273.333 301.898 272.37 300.571L268.798 295.65L267.697 296.449L271.21 301.289C272.092 302.503 272.031 304.054 270.72 305.006C269.523 305.875 268.202 305.622 267.227 304.279L263.667 299.375L262.583 300.162L266.307 305.293C267.623 307.106 269.539 307.395 271.238 306.162C272.501 305.245 272.986 303.905 272.602 302.627C273.714 303.376 275.107 303.354 276.337 302.461C277.437 301.662 277.947 300.526 277.736 299.418L278.676 300.441L279.648 299.736L273.961 291.903L272.844 292.713Z" fill="black"/>
<path d="M253.367 304.97C251.903 305.71 251.05 306.948 251.064 308.307L250.137 306.871L249.102 307.394L251.925 312.981C253.08 315.266 255.049 315.526 257.048 314.516C259.172 313.442 260.032 311.596 259.148 309.847L258.023 310.415C258.61 311.575 258.06 312.705 256.56 313.462C255.293 314.103 254.005 314.082 253.148 312.386L253.004 312.1L255.742 310.425C257.678 309.245 258.387 307.632 257.584 306.043C256.817 304.526 255.205 304.041 253.367 304.97ZM253.586 306.114C254.764 305.519 255.82 305.657 256.353 306.71C256.84 307.674 256.54 308.722 254.988 309.686L252.535 311.172L252.3 310.708C251.353 308.834 251.766 307.034 253.586 306.114Z" fill="black"/>
<path d="M229.91 312.569L228.807 312.859L233.277 329.841L234.38 329.551L229.91 312.569Z" fill="black"/>
</svg>
