<svg width="33" height="32" viewBox="0 0 33 32" fill="none" xmlns="http://www.w3.org/2000/svg">
<path d="M16.7979 2.91084C9.12143 2.91084 2.89844 9.13495 2.89844 16.8103C2.89844 24.4867 9.12143 30.7086 16.7979 30.7086C24.4743 30.7086 30.6962 24.4867 30.6962 16.8103C30.6962 9.13495 24.4737 2.91084 16.7979 2.91084ZM23.7992 14.0078C23.8066 14.1579 23.8094 14.3086 23.8094 14.461C23.8094 19.09 20.2861 24.4269 13.8436 24.4269C11.8658 24.4269 10.024 23.8472 8.47401 22.8538C8.74833 22.8859 9.0266 22.9023 9.30939 22.9023C10.9508 22.9023 12.4612 22.3424 13.6596 21.4031C12.1271 21.3743 10.834 20.3612 10.388 18.9698C10.6014 19.0116 10.821 19.0325 11.0467 19.0325C11.3662 19.0325 11.6755 18.9907 11.9696 18.91C10.3666 18.5883 9.15925 17.1715 9.15925 15.4759C9.15925 15.4607 9.15925 15.446 9.15981 15.4308C9.63169 15.6932 10.1719 15.8507 10.7465 15.8693C9.8061 15.24 9.18803 14.1692 9.18803 12.9534C9.18803 12.3116 9.36075 11.7094 9.66216 11.1924C11.3899 13.3113 13.9711 14.706 16.8825 14.8516C16.8227 14.5959 16.7917 14.3278 16.7917 14.0535C16.7917 12.1197 18.3597 10.5511 20.2946 10.5511C21.3021 10.5511 22.212 10.9767 22.851 11.6569C23.6491 11.5005 24.3987 11.2082 25.0754 10.8068C24.813 11.6253 24.2581 12.3116 23.5345 12.7446C24.244 12.6599 24.9191 12.4714 25.5467 12.1931C25.0782 12.897 24.4839 13.5139 23.7992 14.0078Z" fill="#333333"/>
</svg>
